<mxfile host="app.diagrams.net" agent="Mozilla/5.0 (Windows NT 10.0; Win64; x64) AppleWebKit/537.36 (KHTML, like Gecko) Chrome/138.0.0.0 Safari/537.36" version="28.1.2">
  <diagram name="หน้า-1" id="oSTj4sIwh5xb712iLlxB">
    <mxGraphModel dx="868" dy="535" grid="1" gridSize="10" guides="1" tooltips="1" connect="1" arrows="1" fold="1" page="1" pageScale="1" pageWidth="827" pageHeight="1169" math="0" shadow="0">
      <root>
        <mxCell id="0" />
        <mxCell id="1" parent="0" />
        <mxCell id="7v3vjcDd25FFiBqrqM6I-7" value="" style="edgeStyle=orthogonalEdgeStyle;rounded=0;orthogonalLoop=1;jettySize=auto;html=1;" edge="1" parent="1" source="7v3vjcDd25FFiBqrqM6I-1" target="7v3vjcDd25FFiBqrqM6I-6">
          <mxGeometry relative="1" as="geometry" />
        </mxCell>
        <mxCell id="7v3vjcDd25FFiBqrqM6I-1" value="START" style="ellipse;whiteSpace=wrap;html=1;" vertex="1" parent="1">
          <mxGeometry x="340" y="120" width="120" height="80" as="geometry" />
        </mxCell>
        <mxCell id="7v3vjcDd25FFiBqrqM6I-9" value="" style="edgeStyle=orthogonalEdgeStyle;rounded=0;orthogonalLoop=1;jettySize=auto;html=1;" edge="1" parent="1" source="7v3vjcDd25FFiBqrqM6I-6" target="7v3vjcDd25FFiBqrqM6I-8">
          <mxGeometry relative="1" as="geometry" />
        </mxCell>
        <mxCell id="7v3vjcDd25FFiBqrqM6I-6" value="&lt;b&gt;Input Number 1&lt;/b&gt; &lt;br&gt; &lt;b&gt;Input Number 2&lt;/b&gt; &lt;br&gt; &lt;b&gt;Input Number 3&lt;/b&gt;" style="shape=parallelogram;perimeter=parallelogramPerimeter;whiteSpace=wrap;html=1;fixedSize=1;" vertex="1" parent="1">
          <mxGeometry x="320" y="230" width="160" height="70" as="geometry" />
        </mxCell>
        <mxCell id="7v3vjcDd25FFiBqrqM6I-11" value="" style="edgeStyle=orthogonalEdgeStyle;rounded=0;orthogonalLoop=1;jettySize=auto;html=1;" edge="1" parent="1" source="7v3vjcDd25FFiBqrqM6I-8" target="7v3vjcDd25FFiBqrqM6I-10">
          <mxGeometry relative="1" as="geometry" />
        </mxCell>
        <mxCell id="7v3vjcDd25FFiBqrqM6I-8" value="Sum = Number1 + Number2 + Number3" style="whiteSpace=wrap;html=1;" vertex="1" parent="1">
          <mxGeometry x="315" y="330" width="170" height="50" as="geometry" />
        </mxCell>
        <mxCell id="7v3vjcDd25FFiBqrqM6I-13" value="" style="edgeStyle=orthogonalEdgeStyle;rounded=0;orthogonalLoop=1;jettySize=auto;html=1;" edge="1" parent="1" source="7v3vjcDd25FFiBqrqM6I-10" target="7v3vjcDd25FFiBqrqM6I-12">
          <mxGeometry relative="1" as="geometry" />
        </mxCell>
        <mxCell id="7v3vjcDd25FFiBqrqM6I-10" value="Display Sum" style="shape=parallelogram;perimeter=parallelogramPerimeter;whiteSpace=wrap;html=1;fixedSize=1;" vertex="1" parent="1">
          <mxGeometry x="340" y="400" width="120" height="60" as="geometry" />
        </mxCell>
        <mxCell id="7v3vjcDd25FFiBqrqM6I-12" value="END" style="ellipse;whiteSpace=wrap;html=1;" vertex="1" parent="1">
          <mxGeometry x="340" y="490" width="120" height="80" as="geometry" />
        </mxCell>
      </root>
    </mxGraphModel>
  </diagram>
</mxfile>
